<?xml version="1.0" standalone="no"?>
<svg xmlns="http://www.w3.org/2000/svg" viewBox="0 0 39.671 45.808" width="39.671" height="45.808"><polygon fill="#000000" points="39.671,11.452 39.671,34.356 19.8355,45.808 0,34.356 0,11.452 19.8355,0"></polygon><path fill="white" fill-rule="nonzero" d="M5.04 20.81Q3.62 20.81 2.47 20.26Q1.32 19.70 0.66 18.64Q0 17.57 0 16.06L0 16.06L0 10.90L4.06 10.90L4.06 15.82Q4.06 16.37 4.28 16.69Q4.51 17.02 4.99 17.02L4.99 17.02Q5.45 17.02 5.68 16.72Q5.90 16.42 5.90 15.86L5.90 15.86L5.90 0L10.06 0L10.06 15.46Q10.06 17.06 9.42 18.28Q8.78 19.49 7.64 20.15Q6.50 20.81 5.04 20.81L5.04 20.81Z" transform="translate(14.808, 12.5)"></path></svg>