<?xml version="1.0" standalone="no"?>
<svg xmlns="http://www.w3.org/2000/svg" viewBox="0 0 52 32" width="52" height="32"><path fill="#FFB600" fill-rule="nonzero" d="M5.04 20.81Q3.62 20.81 2.47 20.26Q1.32 19.70 0.66 18.64Q0 17.57 0 16.06L0 16.06L0 10.90L4.06 10.90L4.06 15.82Q4.06 16.37 4.28 16.69Q4.51 17.02 4.99 17.02L4.99 17.02Q5.45 17.02 5.68 16.72Q5.90 16.42 5.90 15.86L5.90 15.86L5.90 0L10.06 0L10.06 15.46Q10.06 17.06 9.42 18.28Q8.78 19.49 7.64 20.15Q6.50 20.81 5.04 20.81L5.04 20.81ZM16.22 20.81Q14.81 20.81 13.66 20.26Q12.50 19.70 11.84 18.64Q11.18 17.57 11.18 16.06L11.18 16.06L11.18 10.90L15.24 10.90L15.24 15.82Q15.24 16.37 15.47 16.69Q15.70 17.02 16.18 17.02L16.18 17.02Q16.63 17.02 16.86 16.72Q17.09 16.42 17.09 15.86L17.09 15.86L17.09 0L21.24 0L21.24 15.46Q21.24 17.06 20.60 18.28Q19.97 19.49 18.83 20.15Q17.69 20.81 16.22 20.81L16.22 20.81ZM26.09 20.86Q24.24 20.86 23.28 19.54Q22.32 18.22 22.32 16.10L22.32 16.10Q22.32 13.75 22.99 12.32Q23.66 10.90 25.10 9.82L25.10 9.82Q23.93 7.51 23.93 5.83L23.93 5.83Q23.93 4.08 25.07 3.08Q26.21 2.09 28.01 2.09L28.01 2.09Q29.78 2.09 30.92 3.04Q32.06 3.98 32.06 5.69L32.06 5.69Q32.06 8.18 29.30 10.37L29.30 10.37L30.05 12.12Q30.72 10.34 32.06 9.36L32.06 9.36L33.70 11.90Q32.28 13.01 31.39 15.55L31.39 15.55L33.48 20.62L29.50 20.62L29.06 19.49Q28.56 20.09 27.78 20.47Q27.00 20.86 26.09 20.86L26.09 20.86ZM28.25 7.61L28.44 7.39Q28.68 7.13 28.87 6.64Q29.06 6.14 29.06 5.69L29.06 5.69Q29.06 4.97 28.37 4.97L28.37 4.97Q28.08 4.97 27.91 5.17Q27.74 5.38 27.74 5.69L27.74 5.69Q27.74 6.31 28.25 7.61L28.25 7.61ZM26.74 17.86Q27.19 17.86 27.50 17.51Q27.82 17.16 27.91 16.70L27.91 16.70L26.50 13.30L26.35 13.51Q26.16 13.80 26.04 14.42Q25.92 15.05 25.92 15.65L25.92 15.65L25.92 15.77Q25.92 16.70 26.06 17.28Q26.21 17.86 26.74 17.86L26.74 17.86ZM38.66 20.62L34.94 20.62L34.94 0L41.23 0L42.96 12.58L44.69 0L51.02 0L51.02 20.62L47.26 20.62L47.26 5.76L44.88 20.62L41.18 20.62L38.66 5.76L38.66 20.62Z"></path><line x1="15.3072" y1="30.855999999999998" x2="35.7168" y2="30.855999999999998" stroke="#FFB600" stroke-linecap="round"></line></svg>